<?xml version="1.0" encoding="utf-8"?>
<!-- Generator: Adobe Illustrator 24.0.1, SVG Export Plug-In . SVG Version: 6.00 Build 0)  -->
<svg version="1.1" id="Layer_1" xmlns="http://www.w3.org/2000/svg" xmlns:xlink="http://www.w3.org/1999/xlink" x="0px" y="0px"
	 viewBox="0 0 206 238" style="enable-background:new 0 0 206 238;" xml:space="preserve">
<g>
	<g>
		<path d="M199.9,29.9L199.9,29.9C198.7,29,169.2,7,150.9,5c-14.7-1.7-40.2,8.8-47.1,11.8C96.8,13.5,70.8,1.9,56.1,5
			C36.2,9.2,8.9,29,7.8,29.9c-1,0.8-1.6,2-1.6,3.2L5.8,155c0,1.5,0.8,2.9,2.2,3.6c0.6,0.3,1.2,0.4,1.8,0.4c0.8,0,1.7-0.3,2.4-0.8
			c0.3-0.2,27.3-20,45.6-23.7c11.7-2.5,35.8,7.5,44.2,11.6c1.1,0.6,2.4,0.6,3.5,0c8.2-4.1,32.2-14.1,44.2-11.6
			c17.9,3.8,45,23.5,45.2,23.7c1.2,0.9,2.8,1,4.2,0.4c1.4-0.7,2.2-2,2.2-3.6l0.3-121.9C201.5,31.9,200.9,30.7,199.9,29.9z
			 M99.7,136.2c-10.1-4.4-31-12.3-43.6-9.6l0,0c-14.3,3-32.7,14.3-42.2,20.7l0.3-112.2c6.1-4.3,28-19.1,43.6-22.3
			c10.7-2.3,32.1,6.2,41.9,10.8L99.7,136.2L99.7,136.2z M193.2,147.4L193.2,147.4c-9.5-6.4-27.8-17.8-42-20.7
			c-1.8-0.4-3.8-0.6-5.8-0.6c-12.6,0-29.1,6.4-37.8,10.1V23.8c9.9-4.2,31.2-12.1,42.3-10.9h0c13.9,1.5,37.2,17.6,43.5,22.2
			L193.2,147.4z"/>
	</g>
</g>
<g>
	<path d="M8.7,169.8h28.5v3.1h-6.8c-1.1,0-1.9,0.3-2.4,0.9c-0.5,0.6-0.8,1.5-0.8,2.7v48.4c0,1.2,0.3,2,1,2.5c0.6,0.5,2,0.7,3.9,0.7
		h8.6c4.6,0,8.3-1.5,11.3-4.6c2.9-3.1,5-8.4,6.4-15.9h2.9l-1.4,23.6H8.7v-3.1h5c1.7,0,2.9-0.3,3.6-1c0.7-0.7,1-1.7,1-3.1v-47.9
		c0-1-0.3-1.8-0.9-2.3S16,173,14.9,173H8.7V169.8z"/>
	<path d="M64.7,192.3l15.5-0.5v33.5c0,0.9,0.2,1.6,0.7,2c0.6,0.6,1.4,0.8,2.4,0.8h4.4v3.1H65.6v-3.1h4.1c1.2,0,2.1-0.3,2.7-0.9
		s0.9-1.5,0.9-2.6v-24.5c0-1.5-0.4-2.7-1.3-3.5c-0.9-0.8-2.2-1.2-3.9-1.2h-3.2V192.3z M75.5,169.1c1.2,0,2.3,0.5,3.3,1.4
		c0.9,0.9,1.4,2,1.4,3.3c0,1.2-0.5,2.3-1.4,3.2c-0.9,0.9-2,1.4-3.3,1.4c-1.3,0-2.4-0.5-3.3-1.4s-1.4-2-1.4-3.3
		c0-1.2,0.5-2.3,1.4-3.3C73.2,169.6,74.3,169.1,75.5,169.1z"/>
	<path d="M104.3,169.1v28.9c1.6-2.3,3.4-4,5.4-5.2s4.2-1.7,6.5-1.7c4.6,0,8.4,1.8,11.6,5.4s4.7,8.3,4.7,14.1
		c0,6.3-1.7,11.4-5.1,15.3c-3.4,3.9-7.6,5.8-12.6,5.8c-2.4,0-4.5-0.5-6.5-1.4c-1.9-0.9-3.9-2.5-6-4.8c-1.6,2.5-3.1,4.6-4.6,6.2
		l-1.7-0.6c0.8-3.2,1.2-6.5,1.2-10v-44c0-1.4-0.5-2.4-1.4-3.2c-1-0.8-2.3-1.2-4-1.2h-1.7v-3.1L104.3,169.1z M114.7,194.9
		c-3.1,0-5.7,1.4-7.6,4.1c-2,2.7-2.9,7.2-2.9,13.5c0,6,1,10.2,2.9,12.8c1.9,2.6,4.5,3.9,7.6,3.9c2.8,0,5.1-1.3,6.8-3.8
		c2.2-3.2,3.2-7.8,3.2-13.7c0-5.9-0.9-10.1-2.8-12.7S117.6,194.9,114.7,194.9z"/>
	<path d="M138.9,192.3l14-0.7v15.7c1.5-5.2,3.3-9.1,5.4-11.7c2.1-2.7,4.7-4,7.8-4c2.1,0,3.8,0.6,5,1.9c1.3,1.3,1.9,3,1.9,5.2
		c0,1.7-0.4,3.1-1.3,4.1c-0.8,1-1.9,1.5-3.2,1.5c-1.2,0-2.2-0.4-3-1.2s-1.1-2-1.1-3.4c0-0.9,0.2-1.8,0.7-2.6
		c0.4-0.7,0.6-1.1,0.6-1.3c0-0.4-0.3-0.6-0.8-0.6c-1.1,0-2.4,0.7-3.9,2c-2,1.9-3.5,4.4-4.6,7.6c-1.7,5-2.5,9.1-2.5,12.1v8.3
		c0,0.9,0.3,1.7,1,2.2s1.8,0.7,3.4,0.7h4.9v3.1h-24.2v-3.1h3.9c1.3,0,2.3-0.3,2.9-0.8c0.7-0.5,1-1.1,1-1.8v-24.8
		c0-1.9-0.4-3.3-1.2-4.1c-0.8-0.9-2-1.3-3.4-1.3h-3.4V192.3z"/>
	<path d="M176.5,192.3l15.5-0.5v33.5c0,0.9,0.2,1.6,0.7,2c0.6,0.6,1.4,0.8,2.4,0.8h4.4v3.1h-22.1v-3.1h4.1c1.2,0,2.1-0.3,2.7-0.9
		s0.9-1.5,0.9-2.6v-24.5c0-1.5-0.4-2.7-1.3-3.5c-0.9-0.8-2.2-1.2-3.9-1.2h-3.2V192.3z M187.3,169.1c1.2,0,2.3,0.5,3.3,1.4
		c0.9,0.9,1.4,2,1.4,3.3c0,1.2-0.5,2.3-1.4,3.2c-0.9,0.9-2,1.4-3.3,1.4c-1.3,0-2.4-0.5-3.3-1.4s-1.4-2-1.4-3.3
		c0-1.2,0.5-2.3,1.4-3.3C185,169.6,186.1,169.1,187.3,169.1z"/>
</g>
</svg>
