<?xml version="1.0" encoding="utf-8"?>
<!-- Generator: Adobe Illustrator 24.0.1, SVG Export Plug-In . SVG Version: 6.00 Build 0)  -->
<svg version="1.1" id="Layer_1" xmlns="http://www.w3.org/2000/svg" xmlns:xlink="http://www.w3.org/1999/xlink" x="0px" y="0px"
	 viewBox="0 0 336 104" style="enable-background:new 0 0 336 104;" xml:space="preserve">
<style type="text/css">
	.st0{fill:none;stroke:#000000;stroke-miterlimit:10;}
</style>
<g>
	<g>
		<path class="st0" d="M119.7,22.4L119.7,22.4C119,21.8,101.9,9.1,91.3,8c-8.5-1-23.3,5.1-27.3,6.8C60,12.9,45,6.2,36.5,8
			C25,10.4,9.2,21.9,8.5,22.3c-0.6,0.4-0.9,1.1-0.9,1.8L7.4,94.7c0,0.9,0.5,1.7,1.3,2.1C9,97,9.4,97,9.7,97c0.5,0,1-0.2,1.4-0.4
			c0.2-0.1,15.8-11.6,26.4-13.7c6.7-1.5,20.7,4.3,25.6,6.7c0.6,0.3,1.4,0.3,2,0c4.8-2.4,18.6-8.2,25.6-6.7
			c10.4,2.2,26,13.6,26.2,13.7c0.7,0.5,1.6,0.6,2.4,0.2c0.8-0.4,1.3-1.2,1.3-2.1l0.2-70.5C120.6,23.5,120.3,22.8,119.7,22.4z
			 M61.7,83.9c-5.8-2.5-17.9-7.1-25.2-5.5l0,0c-8.3,1.7-18.9,8.3-24.4,12l0.2-64.9c3.5-2.5,16.2-11,25.2-12.9
			c6.2-1.3,18.6,3.6,24.3,6.3L61.7,83.9L61.7,83.9z M115.8,90.3L115.8,90.3c-5.5-3.7-16.1-10.3-24.3-12c-1-0.2-2.2-0.3-3.4-0.3
			c-7.3,0-16.9,3.7-21.9,5.9V18.8c5.7-2.4,18-7,24.5-6.3h0c8.1,0.9,21.5,10.2,25.2,12.8L115.8,90.3z"/>
	</g>
</g>
<g>
	<path class="st0" d="M139.1,25.7h28.5v3.1h-6.8c-1.1,0-1.9,0.3-2.4,0.9c-0.5,0.6-0.8,1.5-0.8,2.7v48.4c0,1.2,0.3,2,1,2.5
		c0.6,0.5,2,0.7,3.9,0.7h8.6c4.6,0,8.3-1.5,11.3-4.6c2.9-3.1,5-8.4,6.4-15.9h2.9l-1.4,23.6h-51.1V84h5c1.7,0,2.9-0.3,3.6-1
		c0.7-0.7,1-1.7,1-3.1V32c0-1-0.3-1.8-0.9-2.3s-1.4-0.8-2.6-0.8h-6.2V25.7z"/>
	<path class="st0" d="M195.1,48.2l15.5-0.5v33.5c0,0.9,0.2,1.6,0.7,2c0.6,0.6,1.4,0.8,2.4,0.8h4.4v3.1H196V84h4.1
		c1.2,0,2.1-0.3,2.7-0.9s0.9-1.5,0.9-2.6V56c0-1.5-0.4-2.7-1.3-3.5c-0.9-0.8-2.2-1.2-3.9-1.2h-3.2V48.2z M205.9,25
		c1.2,0,2.3,0.5,3.3,1.4c0.9,0.9,1.4,2,1.4,3.3c0,1.2-0.5,2.3-1.4,3.2c-0.9,0.9-2,1.4-3.3,1.4c-1.3,0-2.4-0.5-3.3-1.4
		s-1.4-2-1.4-3.3c0-1.2,0.5-2.3,1.4-3.3C203.6,25.5,204.7,25,205.9,25z"/>
	<path class="st0" d="M234.7,25V54c1.6-2.3,3.4-4,5.4-5.2s4.2-1.7,6.5-1.7c4.6,0,8.4,1.8,11.6,5.4s4.7,8.3,4.7,14.1
		c0,6.3-1.7,11.4-5.1,15.3c-3.4,3.9-7.6,5.8-12.6,5.8c-2.4,0-4.5-0.5-6.5-1.4c-1.9-0.9-3.9-2.5-6-4.8c-1.6,2.5-3.1,4.6-4.6,6.2
		l-1.7-0.6c0.8-3.2,1.2-6.5,1.2-10v-44c0-1.4-0.5-2.4-1.4-3.2c-1-0.8-2.3-1.2-4-1.2h-1.7v-3.1L234.7,25z M245.1,50.8
		c-3.1,0-5.7,1.4-7.6,4.1c-2,2.7-2.9,7.2-2.9,13.5c0,6,1,10.2,2.9,12.8c1.9,2.6,4.5,3.9,7.6,3.9c2.8,0,5.1-1.3,6.8-3.8
		c2.2-3.2,3.2-7.8,3.2-13.7c0-5.9-0.9-10.1-2.8-12.7S248,50.8,245.1,50.8z"/>
	<path class="st0" d="M269.3,48.2l14-0.7v15.7c1.5-5.2,3.3-9.1,5.4-11.7c2.1-2.7,4.7-4,7.8-4c2.1,0,3.8,0.6,5,1.9
		c1.3,1.3,1.9,3,1.9,5.2c0,1.7-0.4,3.1-1.3,4.1c-0.8,1-1.9,1.5-3.2,1.5c-1.2,0-2.2-0.4-3-1.2s-1.1-2-1.1-3.4c0-0.9,0.2-1.8,0.7-2.6
		c0.4-0.7,0.6-1.1,0.6-1.3c0-0.4-0.3-0.6-0.8-0.6c-1.1,0-2.4,0.7-3.9,2c-2,1.9-3.5,4.4-4.6,7.6c-1.7,5-2.5,9.1-2.5,12.1v8.3
		c0,0.9,0.3,1.7,1,2.2s1.8,0.7,3.4,0.7h4.9v3.1h-24.2V84h3.9c1.3,0,2.3-0.3,2.9-0.8c0.7-0.5,1-1.1,1-1.8V56.6c0-1.9-0.4-3.3-1.2-4.1
		c-0.8-0.9-2-1.3-3.4-1.3h-3.4V48.2z"/>
	<path class="st0" d="M306.9,48.2l15.5-0.5v33.5c0,0.9,0.2,1.6,0.7,2c0.6,0.6,1.4,0.8,2.4,0.8h4.4v3.1h-22.1V84h4.1
		c1.2,0,2.1-0.3,2.7-0.9s0.9-1.5,0.9-2.6V56c0-1.5-0.4-2.7-1.3-3.5c-0.9-0.8-2.2-1.2-3.9-1.2h-3.2V48.2z M317.7,25
		c1.2,0,2.3,0.5,3.3,1.4c0.9,0.9,1.4,2,1.4,3.3c0,1.2-0.5,2.3-1.4,3.2c-0.9,0.9-2,1.4-3.3,1.4c-1.3,0-2.4-0.5-3.3-1.4
		s-1.4-2-1.4-3.3c0-1.2,0.5-2.3,1.4-3.3C315.4,25.5,316.5,25,317.7,25z"/>
</g>
</svg>
